<svg xmlns="http://www.w3.org/2000/svg" width="46.766" height="46.761" viewBox="0 0 46.766 46.761"><rect width="6.855" height="4.219" transform="translate(5.273 12.129)" fill="#33b355"/><path d="M1157.12,2845.379l-2.826,1.913v.814l12.632,12.38,2.506-2.336v-3.479l-9.749-8.437Z" transform="translate(-1130.409 -2818.813)" fill="#33b355"/><ellipse cx="3.955" cy="3.955" rx="3.955" ry="3.955" transform="translate(17.402 34.276)" fill="#33b355"/><g transform="translate(0 0)"><path d="M-1004.865,454.745c-.065.248-.119.5-.2.743a4.772,4.772,0,0,1-2.564,2.93,34.525,34.525,0,0,0-7.549,5.335c.121.132.215.242.316.344.6.608,1.221,1.192,1.79,1.825a4.506,4.506,0,0,1,.011,6.038c-.384.432-.8.832-1.212,1.241-.688.69-.981.707-1.79.082-.014.135-.035.245-.036.355,0,1.02,0,2.039,0,3.059a.935.935,0,0,1-1.071,1.06q-6.141,0-12.282,0c-.659,0-1.077-.367-1.072-.921s.421-.9,1.089-.9q5.456,0,10.912,0h.576c.008-.175.022-.322.022-.468,0-1.218-.009-2.435.008-3.653a.953.953,0,0,0-.312-.756q-5.111-5.091-10.207-10.2c-.086-.086-.174-.17-.257-.26a.912.912,0,0,1-.007-1.377c.464-.482.934-.961,1.428-1.412a4.491,4.491,0,0,1,6.034-.043c.742.671,1.39,1.447,2.117,2.213.428-.48.779-.855,1.106-1.252a.644.644,0,0,0,.087-.383q.006-12.625,0-25.249c0-.073-.009-.147-.016-.244h-24.551v.465q0,2.831,0,5.662c0,.838-.318,1.152-1.162,1.153-2.024,0-4.047,0-6.107,0v35.8h11.565a3.331,3.331,0,0,1,.5.015.912.912,0,0,1,.771.887.916.916,0,0,1-.751.906,2.607,2.607,0,0,1-.455.018h-12.282c-.91,0-1.212-.3-1.212-1.2q0-18.537-.006-37.075a1.431,1.431,0,0,1,.447-1.095q3.465-3.444,6.915-6.9c.18-.18.392-.328.59-.491h26.942a1.242,1.242,0,0,1,.649,1.241q-.021,11.711-.009,23.422v.5l.193.06c.787-1.349,1.612-2.677,2.352-4.052a4.748,4.748,0,0,1,4.508-2.533,4.639,4.639,0,0,1,3.952,3.137c.085.258.152.521.227.782Zm-10.236,16.791c.2-.229.387-.465.593-.686a2.683,2.683,0,0,0,0-3.791c-2.6-2.633-5.222-5.238-7.843-7.848a2.6,2.6,0,0,0-1.857-.747,3.225,3.225,0,0,0-2.55,1.416Zm-1.342-9.117a.334.334,0,0,0,.087-.049,37.066,37.066,0,0,1,8.225-5.764,2.607,2.607,0,0,0,1.43-2.342,2.757,2.757,0,0,0-2.021-2.716,2.826,2.826,0,0,0-3.19,1.449,26.075,26.075,0,0,1-1.594,2.758c-1.331,1.865-2.744,3.673-4.119,5.5Zm-31.967-24.146h4.05V434.24Z" transform="translate(1051.631 -431)" fill="#4d4d4d"/><path d="M-965.633,662.688H-978.5c-.94,0-1.229-.288-1.23-1.222,0-1.065,0-2.13,0-3.195a.936.936,0,0,1,1.069-1.061q13.029,0,26.057,0c.754,0,1.089.335,1.091,1.084q.006,1.643,0,3.286c0,.777-.333,1.108-1.114,1.108Q-959.13,662.689-965.633,662.688Zm12.274-3.621H-970.03v1.77h16.671Zm-18.541,0h-5.97v1.772h5.97Z" transform="translate(983.392 -645.701)" fill="#4d4d4d"/><path d="M-819.7,1091.5c.959-2.649,2.881-3.981,5.141-3.6a4.567,4.567,0,0,1,3.93,4.416,4.616,4.616,0,0,1-3.6,4.568,4.662,4.662,0,0,1-5.479-3.555h-4.008c-.152,0-.3,0-.456,0-.655-.009-1.075-.375-1.065-.928a.931.931,0,0,1,1.05-.9c1.324,0,2.648,0,3.972,0Zm1.985,1.827a2.641,2.641,0,0,0,2.838,1.811,2.757,2.757,0,0,0,2.422-2.8,2.757,2.757,0,0,0-2.48-2.655,2.613,2.613,0,0,0-2.774,1.817c.794,0,1.585,0,2.375,0a.932.932,0,0,1,1.051.894c.011.554-.409.926-1.061.93C-816.132,1093.33-816.92,1093.326-817.715,1093.326Z" transform="translate(836.752 -1054.421)" fill="#4d4d4d"/><path d="M-965.556,802.637h-12.777a3.779,3.779,0,0,1-.5-.012.914.914,0,0,1-.8-.91.916.916,0,0,1,.815-.894,3.354,3.354,0,0,1,.41-.009h25.782c.106,0,.213,0,.319,0a.917.917,0,0,1,.887.918.917.917,0,0,1-.905.9c-.136.009-.274,0-.411,0Z" transform="translate(983.294 -781.996)" fill="#4d4d4d"/><path d="M-965.483,872.611h12.777a4.128,4.128,0,0,1,.456.008.915.915,0,0,1,.827.883.915.915,0,0,1-.829.927,4.127,4.127,0,0,1-.456.008h-25.645q-1.26,0-1.284-.892c-.015-.61.43-.935,1.286-.935Z" transform="translate(983.299 -850.145)" fill="#4d4d4d"/><path d="M-971.157,946.264h-7.207c-.137,0-.275.007-.41-.006a.916.916,0,0,1-.856-.9.916.916,0,0,1,.846-.912,3.593,3.593,0,0,1,.365-.006h14.55a3.291,3.291,0,0,1,.41.01.915.915,0,0,1,.81.9.914.914,0,0,1-.8.907,3.431,3.431,0,0,1-.455.012Z" transform="translate(983.292 -918.318)" fill="#4d4d4d"/><path d="M-973.189,1018.021c-1.839,0-3.678.012-5.517-.012a1.518,1.518,0,0,1-.825-.281.755.755,0,0,1-.22-.911.874.874,0,0,1,.777-.612,7.218,7.218,0,0,1,.729-.009H-967.8c.137,0,.274-.005.41,0a.919.919,0,0,1,.916.89.9.9,0,0,1-.92.928c-.881.017-1.763.006-2.645.006Z" transform="translate(983.468 -986.422)" fill="#4d4d4d"/><path d="M-710.316,540.455c-.273,0-.546.006-.818,0a.926.926,0,0,1-.993-.9.918.918,0,0,1,.972-.921c.56-.011,1.121-.01,1.682,0a.921.921,0,0,1,.993.9.922.922,0,0,1-.971.922C-709.74,540.462-710.028,540.455-710.316,540.455Z" transform="translate(729.398 -533.149)" fill="#4d4d4d"/><path d="M-602.584,540.388c-.318,0-.638.017-.954,0a.908.908,0,0,1-.873-.925.9.9,0,0,1,.865-.885c.636-.024,1.273-.023,1.909,0a.9.9,0,0,1,.872.923.9.9,0,0,1-.865.887C-601.946,540.405-602.265,540.388-602.584,540.388Z" transform="translate(627.161 -533.086)" fill="#4d4d4d"/><path d="M-494.885,540.4c-.3,0-.607.014-.909,0a.911.911,0,0,1-.895-.9.9.9,0,0,1,.889-.908q.931-.031,1.864,0a.9.9,0,0,1,.894.9.909.909,0,0,1-.888.91C-494.247,540.412-494.566,540.4-494.885,540.4Z" transform="translate(524.918 -533.094)" fill="#4d4d4d"/><path d="M-679.786,1017.244a.92.92,0,0,1-.934.908.921.921,0,0,1-.886-.912.92.92,0,0,1,.934-.908A.92.92,0,0,1-679.786,1017.244Z" transform="translate(700.429 -986.556)" fill="#4d4d4d"/><path d="M-716.609,1314.363a.919.919,0,0,1,.91.886.92.92,0,0,1-.909.934.92.92,0,0,1-.911-.932A.92.92,0,0,1-716.609,1314.363Z" transform="translate(734.514 -1269.427)" fill="#4d4d4d"/></g></svg>